<?xml version="1.0" encoding="UTF-8"?>
<svg width="168px" height="25px" viewBox="0 0 168 25" version="1.1" xmlns="http://www.w3.org/2000/svg" xmlns:xlink="http://www.w3.org/1999/xlink">
    <!-- Generator: Sketch 41 (35326) - http://www.bohemiancoding.com/sketch -->
    <title>Deal Grocer</title>
    <desc>Created with Sketch.</desc>
    <defs></defs>
    <g id="Symbols" stroke="none" stroke-width="1" fill="none" fill-rule="evenodd">
        <g id="DG-Desktop-Header---1" transform="translate(-43.000000, -16.000000)" fill="#FFFFFF">
            <g id="Deal-Grocer">
                <path d="M52.555,36.045 C54.6783439,36.045 56.2183286,35.3858399 57.175,34.0675 C58.1316714,32.7491601 58.61,30.7716798 58.61,28.135 C58.61,26.8283268 58.4933345,25.708338 58.26,24.775 C58.0266655,23.841662 57.6475026,23.077503 57.1225,22.4825 C56.5974974,21.887497 55.9266707,21.4558347 55.11,21.1875 C54.2933292,20.9191653 53.3016725,20.785 52.135,20.785 L48.53,20.785 L48.53,36.045 L52.555,36.045 Z M43.805,40 L43.805,16.76 L52.8,16.76 C54.3633411,16.76 55.8099933,17.0224974 57.14,17.5475 C58.4700067,18.0725026 59.6074953,18.8249951 60.5525,19.805 C61.4975047,20.7850049 62.2383307,21.974993 62.775,23.375 C63.3116694,24.775007 63.58,26.3616578 63.58,28.135 C63.58,29.9083422 63.3408357,31.5241594 62.8625,32.9825 C62.3841643,34.4408406 61.7016711,35.6891615 60.815,36.7275 C59.9283289,37.7658385 58.8666729,38.5708305 57.63,39.1425 C56.3933272,39.7141695 55.0283408,40 53.535,40 L43.805,40 Z M76.32,29.71 C76.2966665,29.0799969 76.1858343,28.5258357 75.9875,28.0475 C75.7891657,27.5691643 75.5266683,27.1725016 75.2,26.8575 C74.8733317,26.5424984 74.5000021,26.3091674 74.08,26.1575 C73.6599979,26.0058326 73.2283355,25.93 72.785,25.93 C71.8749955,25.93 71.0875033,26.2624967 70.4225,26.9275 C69.7574967,27.5925033 69.3783338,28.5199941 69.285,29.71 L76.32,29.71 Z M69.145,32.58 C69.2150003,33.8866732 69.5941632,34.9249961 70.2825,35.695 C70.9708368,36.4650039 71.8749944,36.85 72.995,36.85 C73.7416704,36.85 74.4008305,36.680835 74.9725,36.3425 C75.5441695,36.004165 75.9116658,35.5316697 76.075,34.925 L80.765,34.925 C80.2283307,36.6983422 79.2950067,38.0633286 77.965,39.02 C76.6349934,39.9766714 75.0483426,40.455 73.205,40.455 C67.4649713,40.455 64.595,37.3283646 64.595,31.075 C64.595,29.7449933 64.7816648,28.5433387 65.155,27.47 C65.5283352,26.3966613 66.0708298,25.4750039 66.7825,24.705 C67.4941702,23.9349961 68.3633282,23.3458354 69.39,22.9375 C70.4166718,22.5291646 71.5949933,22.325 72.925,22.325 C75.5850133,22.325 77.5974932,23.1766581 78.9625,24.88 C80.3275068,26.5833418 81.01,29.1499829 81.01,32.58 L69.145,32.58 Z M92.875,31.565 C92.6416655,31.7983345 92.3033356,31.9849993 91.86,32.125 C91.4166645,32.2650007 90.7750042,32.4166659 89.935,32.58 C88.6283268,32.8366679 87.7300025,33.1633313 87.24,33.56 C86.7499976,33.9566686 86.505,34.5283296 86.505,35.275 C86.505,36.5583398 87.2399927,37.2 88.71,37.2 C89.2933363,37.2 89.8358308,37.1008343 90.3375,36.9025 C90.8391692,36.7041657 91.2708315,36.435835 91.6325,36.0975 C91.9941685,35.759165 92.2858322,35.3625023 92.5075,34.9075 C92.7291678,34.4524977 92.84,33.9683359 92.84,33.455 L92.875,31.565 Z M93.19,40 C93.0499993,39.5566644 92.9566669,39.0433363 92.91,38.46 C92.3733307,39.0666697 91.6616711,39.5508315 90.775,39.9125 C89.8883289,40.2741685 88.8616725,40.455 87.695,40.455 C85.7116568,40.455 84.2591713,40.0175044 83.3375,39.1425 C82.4158287,38.2674956 81.955,37.130007 81.955,35.73 C81.955,34.4933271 82.1533314,33.5075037 82.55,32.7725 C82.9466686,32.0374963 83.4949965,31.4600021 84.195,31.04 C84.8950035,30.6199979 85.7291618,30.3108343 86.6975,30.1125 C87.6658382,29.9141657 88.721661,29.7333341 89.865,29.57 C91.0083391,29.4066658 91.7783314,29.1908347 92.175,28.9225 C92.5716686,28.6541653 92.77,28.2166697 92.77,27.61 C92.77,27.0499972 92.5075026,26.6125016 91.9825,26.2975 C91.4574974,25.9824984 90.7516711,25.825 89.865,25.825 C88.8149947,25.825 88.0625023,26.058331 87.6075,26.525 C87.1524977,26.991669 86.8666673,27.6099962 86.75,28.38 L82.515,28.38 C82.5383334,27.4933289 82.6841653,26.6766704 82.9525,25.93 C83.2208347,25.1833296 83.652497,24.5416693 84.2475,24.005 C84.842503,23.4683306 85.6183286,23.0541681 86.575,22.7625 C87.5316715,22.4708319 88.6983264,22.325 90.075,22.325 C91.4283401,22.325 92.5774953,22.4766651 93.5225,22.78 C94.4675047,23.0833348 95.2258305,23.5208305 95.7975,24.0925 C96.3691695,24.6641695 96.783332,25.3758291 97.04,26.2275 C97.2966679,27.0791709 97.425,28.0416613 97.425,29.115 L97.425,40 L93.19,40 Z M99.245,40 L99.245,16.48 L103.795,16.48 L103.795,40 L99.245,40 Z M131.445,40 L131.34,37.69 C130.779997,38.6700049 129.881673,39.4341639 128.645,39.9825 C127.408327,40.5308361 125.985008,40.805 124.375,40.805 C122.764992,40.805 121.312506,40.4608368 120.0175,39.7725 C118.722494,39.0841632 117.614171,38.1625058 116.6925,37.0075 C115.770829,35.8524942 115.065002,34.5225075 114.575,33.0175 C114.084998,31.5124925 113.84,29.955008 113.84,28.345 C113.84,26.6416581 114.084998,25.0375075 114.575,23.5325 C115.065002,22.0274925 115.788329,20.7150056 116.745,19.595 C117.701671,18.4749944 118.89166,17.5941699 120.315,16.9525 C121.73834,16.3108301 123.394991,15.99 125.285,15.99 C126.661674,15.99 127.950827,16.1883313 129.1525,16.585 C130.354173,16.9816686 131.404162,17.5299965 132.3025,18.23 C133.200838,18.9300035 133.924164,19.7641618 134.4725,20.7325 C135.020836,21.7008382 135.341666,22.7683275 135.435,23.935 L130.535,23.935 C130.465,23.3983306 130.278335,22.8908357 129.975,22.4125 C129.671665,21.9341643 129.286669,21.5200017 128.82,21.17 C128.353331,20.8199982 127.810836,20.5400011 127.1925,20.33 C126.574164,20.1199989 125.938337,20.015 125.285,20.015 C123.32499,20.015 121.755839,20.7441594 120.5775,22.2025 C119.399161,23.6608406 118.81,25.7783195 118.81,28.555 C118.81,29.5116714 118.932499,30.4741618 119.1775,31.4425 C119.422501,32.4108382 119.807497,33.2858294 120.3325,34.0675 C120.857503,34.8491706 121.528329,35.4849976 122.345,35.975 C123.161671,36.4650025 124.129994,36.71 125.25,36.71 C126.043337,36.71 126.784163,36.5700014 127.4725,36.29 C128.160837,36.0099986 128.761664,35.6250024 129.275,35.135 C129.788336,34.6449975 130.190832,34.0791699 130.4825,33.4375 C130.774168,32.7958301 130.92,32.113337 130.92,31.39 L125.775,31.39 L125.775,27.505 L135.47,27.505 L135.47,40 L131.445,40 Z M137.29,40 L137.29,22.78 L141.56,22.78 L141.56,24.845 C141.933335,24.2616637 142.324165,23.8066683 142.7325,23.48 C143.140835,23.1533317 143.560831,22.9025009 143.9925,22.7275 C144.424169,22.5524991 144.861664,22.4416669 145.305,22.395 C145.748336,22.3483331 146.203331,22.325 146.67,22.325 L147.265,22.325 L147.265,26.98 C146.844998,26.9099996 146.425002,26.875 146.005,26.875 C143.228319,26.875 141.84,28.2633194 141.84,31.04 L141.84,40 L137.29,40 Z M155.875,36.64 C158.651681,36.64 160.04,34.8900175 160.04,31.39 C160.04,27.9133159 158.651681,26.175 155.875,26.175 C153.098319,26.175 151.71,27.9133159 151.71,31.39 C151.71,34.8900175 153.098319,36.64 155.875,36.64 Z M155.875,40.455 C154.474993,40.455 153.226672,40.2333355 152.13,39.79 C151.033328,39.3466644 150.105837,38.7283373 149.3475,37.935 C148.589163,37.1416627 148.011669,36.1850056 147.615,35.065 C147.218331,33.9449944 147.02,32.7200067 147.02,31.39 C147.02,30.0366599 147.224165,28.8000056 147.6325,27.68 C148.040835,26.5599944 148.629996,25.6033373 149.4,24.81 C150.170004,24.0166627 151.097495,23.4041688 152.1825,22.9725 C153.267505,22.5408312 154.498326,22.325 155.875,22.325 C157.22834,22.325 158.441661,22.5408312 159.515,22.9725 C160.588339,23.4041688 161.504163,24.0108294 162.2625,24.7925 C163.020837,25.5741706 163.604165,26.5249944 164.0125,27.645 C164.420835,28.7650056 164.625,30.0133265 164.625,31.39 C164.625,32.7666736 164.420835,34.0091611 164.0125,35.1175 C163.604165,36.2258389 163.020837,37.1766627 162.2625,37.97 C161.504163,38.7633373 160.582505,39.3758312 159.4975,39.8075 C158.412495,40.2391688 157.205007,40.455 155.875,40.455 Z M181.6,33.77 C181.483333,34.7733384 181.197502,35.6833292 180.7425,36.5 C180.287498,37.3166708 179.710003,38.0166637 179.01,38.6 C178.309996,39.1833362 177.510838,39.6383317 176.6125,39.965 C175.714162,40.2916683 174.740005,40.455 173.69,40.455 C172.523327,40.455 171.455838,40.2625019 170.4875,39.8775 C169.519162,39.4924981 168.685003,38.9091706 167.985,38.1275 C167.284996,37.3458294 166.742502,36.3775058 166.3575,35.2225 C165.972498,34.0674942 165.78,32.7200077 165.78,31.18 C165.78,29.6399923 165.972498,28.3100056 166.3575,27.19 C166.742502,26.0699944 167.284996,25.1541702 167.985,24.4425 C168.685003,23.7308298 169.530828,23.2000017 170.5225,22.85 C171.514172,22.4999982 172.616661,22.325 173.83,22.325 C174.950006,22.325 175.970829,22.4766651 176.8925,22.78 C177.814171,23.0833348 178.619163,23.5266637 179.3075,24.11 C179.995837,24.6933363 180.538331,25.3933293 180.935,26.21 C181.331669,27.0266708 181.565,27.9366616 181.635,28.94 L177.05,28.94 C176.933333,28.0533289 176.577503,27.3591692 175.9825,26.8575 C175.387497,26.3558308 174.658338,26.105 173.795,26.105 C173.304998,26.105 172.850002,26.1866658 172.43,26.35 C172.009998,26.5133341 171.642502,26.7874981 171.3275,27.1725 C171.012498,27.5575019 170.761668,28.0708301 170.575,28.7125 C170.388332,29.3541699 170.295,30.141662 170.295,31.075 C170.295,32.9650094 170.63333,34.3649954 171.31,35.275 C171.98667,36.1850046 172.768329,36.64 173.655,36.64 C174.541671,36.64 175.299997,36.3950024 175.93,35.905 C176.560003,35.4149975 176.921666,34.703338 177.015,33.77 L181.6,33.77 Z M194.095,29.71 C194.071667,29.0799969 193.960834,28.5258357 193.7625,28.0475 C193.564166,27.5691643 193.301668,27.1725016 192.975,26.8575 C192.648332,26.5424984 192.275002,26.3091674 191.855,26.1575 C191.434998,26.0058326 191.003336,25.93 190.56,25.93 C189.649995,25.93 188.862503,26.2624967 188.1975,26.9275 C187.532497,27.5925033 187.153334,28.5199941 187.06,29.71 L194.095,29.71 Z M186.92,32.58 C186.99,33.8866732 187.369163,34.9249961 188.0575,35.695 C188.745837,36.4650039 189.649994,36.85 190.77,36.85 C191.51667,36.85 192.17583,36.680835 192.7475,36.3425 C193.31917,36.004165 193.686666,35.5316697 193.85,34.925 L198.54,34.925 C198.003331,36.6983422 197.070007,38.0633286 195.74,39.02 C194.409993,39.9766714 192.823343,40.455 190.98,40.455 C185.239971,40.455 182.37,37.3283646 182.37,31.075 C182.37,29.7449933 182.556665,28.5433387 182.93,27.47 C183.303335,26.3966613 183.84583,25.4750039 184.5575,24.705 C185.26917,23.9349961 186.138328,23.3458354 187.165,22.9375 C188.191672,22.5291646 189.369993,22.325 190.7,22.325 C193.360013,22.325 195.372493,23.1766581 196.7375,24.88 C198.102507,26.5833418 198.785,29.1499829 198.785,32.58 L186.92,32.58 Z M200.185,40 L200.185,22.78 L204.455,22.78 L204.455,24.845 C204.828335,24.2616637 205.219165,23.8066683 205.6275,23.48 C206.035835,23.1533317 206.455831,22.9025009 206.8875,22.7275 C207.319169,22.5524991 207.756664,22.4416669 208.2,22.395 C208.643336,22.3483331 209.098331,22.325 209.565,22.325 L210.16,22.325 L210.16,26.98 C209.739998,26.9099996 209.320002,26.875 208.9,26.875 C206.123319,26.875 204.735,28.2633194 204.735,31.04 L204.735,40 L200.185,40 Z"></path>
            </g>
        </g>
    </g>
</svg>