<?xml version="1.0" encoding="UTF-8"?>
<svg width="41px" height="42px" viewBox="0 0 41 42" version="1.1" xmlns="http://www.w3.org/2000/svg" xmlns:xlink="http://www.w3.org/1999/xlink">
    <!-- Generator: Sketch 41.2 (35397) - http://www.bohemiancoding.com/sketch -->
    <title>Shape</title>
    <desc>Created with Sketch.</desc>
    <defs></defs>
    <g id="Desktop---1" stroke="none" stroke-width="1" fill="none" fill-rule="evenodd">
        <g id="Installments-w-error" transform="translate(-438.000000, -682.000000)" fill="#32D192">
            <path d="M458.16,682.84 C447.03593,682.84 438,691.87593 438,703.000017 C438,714.124053 447.03593,723.160017 458.16,723.160017 C469.284078,723.160017 478.32,714.124053 478.32,703.000017 C478.32,691.87593 469.284078,682.84 458.16,682.84 L458.16,682.84 Z M458.16,684.52 C468.376156,684.52 476.64,692.783853 476.64,703.000017 C476.64,713.216181 468.376156,721.480017 458.16,721.480017 C447.943853,721.480017 439.68,713.216181 439.68,703.000017 C439.68,692.783853 447.943853,684.52 458.16,684.52 L458.16,684.52 Z M467.95125,694.94125 L453.6975,709.168725 L448.36875,703.840017 L447.16125,705.021225 C449.34,707.200017 451.51875,709.378725 453.6975,711.557517 C458.878788,706.440909 464.009525,701.271717 469.15875,696.1225 L467.95125,694.94125 Z" id="Shape"></path>
        </g>
    </g>
</svg>