<svg width="47px" height="42px" viewBox="0 0 47 42" version="1.1" xmlns="http://www.w3.org/2000/svg" xmlns:xlink="http://www.w3.org/1999/xlink">
    <defs></defs>
    <g stroke="none" stroke-width="1" fill="none" fill-rule="evenodd">
        <g transform="translate(-379.000000, -681.000000)" fill="#F4565D">
            <path d="M402.66324,681.320277 C401.285946,681.320277 399.917538,681.992528 399.149278,683.325396 L380.001159,716.536352 C378.47566,719.18239 380.465835,722.566688 383.530011,722.566612 L421.811358,722.566612 C424.875533,722.566688 426.865709,719.18239 425.34021,716.536352 L406.192092,683.325396 C405.423832,681.99268 404.040534,681.320277 402.66324,681.320277 Z M400.891369,684.32054 C401.696968,682.923033 403.644401,682.923033 404.450001,684.32054 L423.598118,717.546326 C424.39709,718.932197 423.431857,720.561494 421.811358,720.561494 L383.530011,720.561494 C381.909516,720.561494 380.94428,718.932197 381.743251,717.546326 L400.891369,684.32054 Z M402.559012,693.885747 C402.040124,693.945112 401.652499,694.389792 401.665632,694.910625 L401.665632,708.471239 C401.633611,708.84961 401.817863,709.213734 402.142051,709.412748 C402.466238,709.611762 402.875132,709.611762 403.199319,709.412748 C403.523506,709.213734 403.707759,708.84961 403.675738,708.471239 L403.675738,694.910625 C403.682837,694.620762 403.56423,694.341935 403.350321,694.145619 C403.136412,693.949303 402.847998,693.854585 402.559012,693.885747 Z M403.678716,712.508397 C403.67867,713.063935 403.22715,713.514264 402.670189,713.514264 C402.113228,713.514264 401.661708,713.063935 401.661662,712.508397 C401.661644,712.24159 401.767891,711.985705 401.957029,711.797037 C402.146166,711.60837 402.402699,711.502377 402.670189,711.502377 C402.937679,711.502377 403.194212,711.60837 403.383349,711.797037 C403.572487,711.985705 403.678734,712.24159 403.678716,712.508397 L403.678716,712.508397 Z" id="Combined-Shape"></path>
        </g>
    </g>
</svg>